<svg id="visual" viewBox="0 0 900 900" width="900" height="900" xmlns="http://www.w3.org/2000/svg" xmlns:xlink="http://www.w3.org/1999/xlink" version="1.1"><path d="M0 190L82 136L164 352L245 262L327 208L409 145L491 199L573 325L655 262L736 226L818 181L900 244L900 0L818 0L736 0L655 0L573 0L491 0L409 0L327 0L245 0L164 0L82 0L0 0Z" fill="#4caf50"></path><path d="M0 379L82 208L164 541L245 460L327 442L409 406L491 307L573 469L655 478L736 334L818 280L900 442L900 242L818 179L736 224L655 260L573 323L491 197L409 143L327 206L245 260L164 350L82 134L0 188Z" fill="#7cc178"></path><path d="M0 487L82 352L164 595L245 523L327 514L409 487L491 424L573 604L655 550L736 487L818 379L900 559L900 440L818 278L736 332L655 476L573 467L491 305L409 404L327 440L245 458L164 539L82 206L0 377Z" fill="#a5d2a0"></path><path d="M0 811L82 739L164 739L245 802L327 766L409 820L491 721L573 775L655 784L736 766L818 775L900 775L900 557L818 377L736 485L655 548L573 602L491 422L409 485L327 512L245 521L164 593L82 350L0 485Z" fill="#cce3c9"></path><path d="M0 901L82 901L164 901L245 901L327 901L409 901L491 901L573 901L655 901L736 901L818 901L900 901L900 773L818 773L736 764L655 782L573 773L491 719L409 818L327 764L245 800L164 737L82 737L0 809Z" fill="#f3f3f3"></path></svg>